<svg width="80" height="80" viewBox="0 0 80 80" xmlns="http://www.w3.org/2000/svg">
    <path fill-rule="evenodd" clip-rule="evenodd"
        d="M43.7307 43.0072C42.6885 43.9656 41.4498 44.9039 40.0045 45.8178ZM40.0045 45.8178C38.5585 44.9038 37.3161 43.9649 36.2673 43.0054C35.1402 41.9685 34.3188 40.9512 33.7593 39.9625C33.2296 39.0104 33 38.1184 33 37.2636C33 36.7147 33.0891 36.2646 33.2377 35.8886C33.4054 35.4739 33.625 35.1418 33.8906 34.8696C34.1613 34.5922 34.4717 34.3808 34.8361 34.2281C35.1832 34.0828 35.5799 34 36.0483 34C36.5941 34 36.986 34.1286 37.2971 34.3307C37.6912 34.5868 38.0088 34.9218 38.2598 35.3649L39.9942 38.4263L41.7373 35.3699C41.9949 34.9184 42.3144 34.5856 42.7017 34.3374L42.7017 34.3374L42.7119 34.3307C43.0253 34.1272 43.4149 34 43.9517 34C44.4201 34 44.8168 34.0828 45.1639 34.2281L45.1638 34.2282L45.1703 34.2308C45.5381 34.3834 45.8419 34.5919 46.1002 34.8601L46.1001 34.8601L46.1094 34.8696C46.3726 35.1393 46.5876 35.4677 46.7492 35.8784L46.7533 35.8888L46.7575 35.8992C46.9091 36.272 47 36.7182 47 37.2636C47 38.1163 46.7686 39.0077 46.2325 39.9609L46.2308 39.9639C45.6779 40.9513 44.8598 41.9688 43.7309 43.0071M31.3807 35.146C31.6405 34.5011 32 33.9434 32.4592 33.4728C32.9184 33.0022 33.4532 32.6391 34.0634 32.3834C34.6737 32.1278 35.3353 32 36.0483 32C36.9366 32 37.716 32.2179 38.3867 32.6536C38.4676 32.7062 38.5466 32.7608 38.6236 32.8174C39.1852 33.2301 39.644 33.7507 40 34.3791C40.36 33.7478 40.8198 33.2281 41.3794 32.8198C41.4584 32.7622 41.5394 32.7068 41.6224 32.6536C42.2931 32.2179 43.0695 32 43.9517 32C44.6647 32 45.3263 32.1278 45.9366 32.3834C46.5529 32.6391 47.0876 33.0022 47.5408 33.4728C48 33.9434 48.3565 34.5011 48.6103 35.146C48.8701 35.785 49 36.4909 49 37.2636C49 38.5011 48.6586 39.7269 47.9758 40.9412C47.2991 42.1496 46.3353 43.329 45.0846 44.4793C43.8399 45.6238 42.3656 46.719 40.6616 47.7647C40.565 47.8228 40.4532 47.8751 40.3263 47.9216C40.2054 47.9739 40.0967 48 40 48C39.9094 48 39.8006 47.9739 39.6737 47.9216C39.5529 47.8751 39.4441 47.8228 39.3474 47.7647C37.6435 46.719 36.1662 45.6238 34.9154 44.4793C33.6647 43.329 32.6979 42.1496 32.0151 40.9412C31.3384 39.7269 31 38.5011 31 37.2636C31 36.4909 31.1269 35.785 31.3807 35.146Z" />
</svg>