<svg width="65" height="64" viewBox="0 0 65 64" xmlns="http://www.w3.org/2000/svg">
    <path
        d="M27.8248 35.2537C27.1692 35.2537 26.6775 35.0888 26.3497 34.759C26.0219 34.4228 25.858 33.9123 25.858 33.2273V29.5835C25.858 28.9493 25.9994 28.4736 26.2822 28.1564L37.2731 38.9926C37.196 39.2653 37.0675 39.4651 36.8875 39.592C36.7075 39.7188 36.4922 39.7822 36.2415 39.7822C36.023 39.7822 35.8141 39.7347 35.6149 39.6395C35.4156 39.5444 35.2035 39.3922 34.9786 39.1829L30.8136 35.3393C30.7493 35.2822 30.669 35.2537 30.5726 35.2537H27.8248ZM37.3406 33.8647L30.6497 27.2812H30.9389C30.9968 27.2812 31.0514 27.2558 31.1028 27.2051L34.9786 23.6564C35.2292 23.4281 35.4445 23.2632 35.6245 23.1617C35.8045 23.0539 36.0069 23 36.2319 23C36.5597 23 36.8264 23.111 37.0321 23.333C37.2378 23.5486 37.3406 23.8118 37.3406 24.1226V33.8647ZM40.6765 40.7812L24.1516 24.4937C24.0102 24.3541 23.9395 24.1829 23.9395 23.9799C23.9395 23.7706 24.0102 23.5962 24.1516 23.4567C24.2994 23.3108 24.4761 23.241 24.6818 23.2474C24.8875 23.2474 25.0643 23.3171 25.2121 23.4567L41.7177 39.7442C41.8655 39.8901 41.9395 40.0613 41.9395 40.2579C41.9395 40.4609 41.8655 40.6353 41.7177 40.7812C41.5827 40.9271 41.4092 41 41.1971 41C40.9914 41 40.8179 40.9271 40.6765 40.7812Z" />
</svg>