<svg xmlns="http://www.w3.org/2000/svg" width="24" height="18" viewBox="0 0 24 18">
    <path
        d="M10.7651 13.8974C10.7651 14.9915 10.2998 15.9487 9.36913 16.7692C8.45638 17.5897 7.3736 18 6.12081 18C4.15213 18 2.63982 17.3761 1.58389 16.1282C0.527964 14.8803 0 13.1538 0 10.9487C0 8.89744 0.903803 6.82906 2.71141 4.74359C4.53691 2.65812 6.72931 1.07692 9.28859 0L10.4698 1.82051C8.44743 2.76068 6.86353 3.8547 5.71812 5.10256C4.57271 6.35043 3.91051 7.86325 3.73154 9.64103H5.2349C6.34452 9.64103 7.24832 9.76068 7.94631 10C8.64429 10.2393 9.20805 10.5726 9.63758 11C10.0492 11.4103 10.3356 11.8632 10.4966 12.359C10.6756 12.8547 10.7651 13.3675 10.7651 13.8974ZM24 13.8974C24 14.9915 23.5347 15.9487 22.604 16.7692C21.6913 17.5897 20.6085 18 19.3557 18C17.387 18 15.8747 17.3761 14.8188 16.1282C13.7629 14.8803 13.2349 13.1538 13.2349 10.9487C13.2349 8.89744 14.1387 6.82906 15.9463 4.74359C17.7718 2.65812 19.9642 1.07692 22.5235 0L23.7047 1.82051C21.6823 2.76068 20.0984 3.8547 18.953 5.10256C17.8076 6.35043 17.1454 7.86325 16.9664 9.64103H18.4698C19.5794 9.64103 20.4832 9.76068 21.1812 10C21.8792 10.2393 22.443 10.5726 22.8725 11C23.2841 11.4103 23.5705 11.8632 23.7315 12.359C23.9105 12.8547 24 13.3675 24 13.8974Z" />
</svg>