<svg width="64" height="64" viewBox="0 0 64 64" xmlns="http://www.w3.org/2000/svg">
    <path
        d="M31.6595 40C31.4504 40 31.2533 39.9518 31.0681 39.8554C30.8829 39.7591 30.6888 39.6049 30.4857 39.3929L26.6685 35.4994C26.6087 35.4416 26.5341 35.4127 26.4444 35.4127H23.8728C23.2694 35.4127 22.8065 35.236 22.4839 34.8827C22.1613 34.5293 22 34.0025 22 33.3022V29.7171C22 29.0232 22.1613 28.4996 22.4839 28.1463C22.8065 27.7865 23.2694 27.6066 23.8728 27.6066H26.4444C26.5341 27.6066 26.6087 27.5777 26.6685 27.5198L30.4857 23.665C30.7186 23.4337 30.9158 23.2666 31.0771 23.1638C31.2443 23.0546 31.4325 23 31.6416 23C31.9462 23 32.1941 23.1124 32.3853 23.3373C32.5765 23.5557 32.672 23.8224 32.672 24.1372V38.9206C32.672 39.229 32.5765 39.486 32.3853 39.6916C32.2001 39.8972 31.9582 40 31.6595 40ZM35.871 35.5958C35.6918 35.4609 35.5902 35.2874 35.5663 35.0754C35.5424 34.8634 35.5992 34.6546 35.7366 34.449C35.9934 34.0571 36.1935 33.6073 36.3369 33.0998C36.4803 32.5858 36.552 32.0493 36.552 31.4904C36.552 30.9314 36.4803 30.3949 36.3369 29.881C36.1995 29.367 35.9994 28.9172 35.7366 28.5317C35.5932 28.3326 35.5335 28.127 35.5573 27.915C35.5872 27.6965 35.6918 27.5198 35.871 27.3849C36.0263 27.2693 36.1965 27.2307 36.3817 27.2693C36.5669 27.3078 36.7192 27.4203 36.8387 27.6066C37.1852 28.0949 37.454 28.6795 37.6452 29.3605C37.8423 30.0416 37.9409 30.7515 37.9409 31.4904C37.9409 32.2292 37.8423 32.9392 37.6452 33.6202C37.454 34.3012 37.1852 34.8859 36.8387 35.3741C36.7192 35.5605 36.5669 35.6729 36.3817 35.7115C36.1965 35.7436 36.0263 35.705 35.871 35.5958ZM39.1953 38.1111C39.0341 37.989 38.9415 37.8284 38.9176 37.6293C38.8937 37.4237 38.9444 37.2213 39.0699 37.0221C39.5538 36.2704 39.9301 35.4191 40.1989 34.4683C40.4737 33.511 40.6111 32.5183 40.6111 31.4904C40.6111 30.4624 40.4767 29.4698 40.2079 28.5125C39.9391 27.5552 39.5597 26.7039 39.0699 25.9586C38.9385 25.7594 38.8847 25.5603 38.9086 25.3611C38.9385 25.1555 39.0341 24.9917 39.1953 24.8696C39.3626 24.7475 39.5388 24.7058 39.724 24.7443C39.9092 24.7829 40.0615 24.8953 40.181 25.0816C40.7605 25.9169 41.2085 26.8966 41.5251 28.021C41.8417 29.1453 42 30.3018 42 31.4904C42 32.6789 41.8387 33.8322 41.5161 34.9501C41.1995 36.068 40.7545 37.051 40.181 37.8991C40.0615 38.0854 39.9092 38.1978 39.724 38.2364C39.5388 38.2685 39.3626 38.2268 39.1953 38.1111Z" />
</svg>