<svg width="84" height="120" viewBox="0 0 84 120" fill="none" xmlns="http://www.w3.org/2000/svg">

    <path
        d="M77.8606 11.6127C77.0629 11.6127 76.3118 11.4632 75.6072 11.1641C74.9092 10.8583 74.2944 10.4395 73.7626 9.90774C73.2308 9.37597 72.8121 8.76111 72.5063 8.06316C72.2072 7.35857 72.0576 6.60744 72.0576 5.80979C72.0576 5.01213 72.2072 4.26433 72.5063 3.56638C72.8121 2.86178 73.2308 2.2436 73.7626 1.71183C74.2944 1.18006 74.9092 0.76461 75.6072 0.465488C76.3118 0.15972 77.0629 0.00683594 77.8606 0.00683594C78.6649 0.00683594 79.416 0.15972 80.1139 0.465488C80.8185 0.76461 81.4367 1.18006 81.9685 1.71183C82.5003 2.2436 82.9157 2.86178 83.2148 3.56638C83.514 4.26433 83.6635 5.01213 83.6635 5.80979C83.6635 6.60744 83.514 7.35857 83.2148 8.06316C82.9157 8.76111 82.5003 9.37597 81.9685 9.90774C81.4367 10.4395 80.8185 10.8583 80.1139 11.1641C79.416 11.4632 78.6649 11.6127 77.8606 11.6127ZM77.8606 10.2168C78.6782 10.2168 79.4193 10.0207 80.084 9.62856C80.7487 9.22974 81.2772 8.69797 81.6694 8.03325C82.0682 7.36189 82.2676 6.62074 82.2676 5.80979C82.2676 4.99883 82.0682 4.261 81.6694 3.59629C81.2772 2.92493 80.7487 2.39316 80.084 2.00098C79.4193 1.60215 78.6782 1.40273 77.8606 1.40273C77.0496 1.40273 76.3085 1.60215 75.6371 2.00098C74.9724 2.39316 74.4406 2.92493 74.0418 3.59629C73.6496 4.261 73.4535 4.99883 73.4535 5.80979C73.4535 6.62074 73.6496 7.36189 74.0418 8.03325C74.4406 8.69797 74.9724 9.22974 75.6371 9.62856C76.3085 10.0207 77.0496 10.2168 77.8606 10.2168ZM75.8265 8.42211V3.07781H78.5386C78.7579 3.07117 78.9972 3.13099 79.2565 3.25729C79.5157 3.37693 79.7351 3.56305 79.9145 3.81564C80.1007 4.06824 80.1937 4.3873 80.1937 4.77283C80.1937 5.14507 80.1073 5.46413 79.9345 5.73002C79.7616 5.98926 79.5556 6.192 79.3163 6.33823L80.4131 8.42211H79.1169L78.1697 6.60744H77.0031V8.42211H75.8265ZM77.0031 5.73002H78.0999C78.2594 5.73667 78.4322 5.66023 78.6183 5.50069C78.8045 5.34116 78.8975 5.09854 78.8975 4.77283C78.8975 4.44712 78.8011 4.22777 78.6084 4.11477C78.4222 3.99512 78.2594 3.93529 78.1198 3.93529H77.0031V5.73002Z"
        fill="#242424" />
    <path fill-rule="evenodd" clip-rule="evenodd"
        d="M63.8342 101.199C69.6313 91.4158 72.5629 77.6576 72.5629 62.1535C72.5629 46.6494 69.6313 32.8912 63.8342 23.108C58.1082 13.4448 49.636 7.68373 38.1174 7.68373C26.5988 7.68373 18.1267 13.4448 12.4007 23.108C6.60362 32.8912 3.67201 46.6494 3.67201 62.1535C3.67201 77.6576 6.60362 91.4158 12.4007 101.199C18.1267 110.862 26.5988 116.623 38.1174 116.623C49.636 116.623 58.1082 110.862 63.8342 101.199ZM38.1174 119.307C63.3467 119.307 75.2466 93.7185 75.2466 62.1535C75.2466 30.5885 63.3467 5 38.1174 5C12.8882 5 0.988281 30.5885 0.988281 62.1535C0.988281 93.7185 12.8882 119.307 38.1174 119.307Z"
        fill="#242424" />
    <path fill-rule="evenodd" clip-rule="evenodd"
        d="M49.9334 60.1942C47.8035 62.3918 44.1741 64.5369 38.1681 64.7873C32.7498 65.0132 29.715 66.9165 28.0367 68.6482C27.1857 69.5262 26.659 70.3857 26.3479 71.0147C26.1925 71.329 26.0916 71.5844 26.0315 71.7535C26.0015 71.8379 25.9818 71.9006 25.9706 71.9379C25.965 71.9566 25.9615 71.9689 25.96 71.9745L25.9603 71.973L25.9607 71.9717C25.9609 71.971 25.9611 71.9702 24.7894 71.6774C23.6177 71.3847 23.618 71.3839 23.6182 71.383L23.6186 71.3811L23.6197 71.3769L23.6225 71.3662L23.6304 71.3367C23.6368 71.3133 23.6454 71.2828 23.6566 71.2456C23.6789 71.1711 23.7112 71.0695 23.7556 70.9447C23.8442 70.6952 23.9813 70.3515 24.1829 69.9439C24.5858 69.1292 25.2492 68.0538 26.3023 66.9672C28.4321 64.7696 32.0615 62.6245 38.0675 62.3741C43.4859 62.1482 46.5207 60.2449 48.1989 58.5132C49.0499 57.6351 49.5766 56.7757 49.8877 56.1467C50.0431 55.8324 50.1441 55.577 50.2041 55.4079C50.2342 55.3235 50.2539 55.2608 50.2651 55.2235C50.2707 55.2048 50.2741 55.1925 50.2756 55.1869L50.2753 55.1883L50.275 55.1897C50.2748 55.1904 50.2746 55.1912 51.4462 55.4839C52.6179 55.7767 52.6177 55.7775 52.6175 55.7784L52.617 55.7803L52.6159 55.7845L52.6132 55.7951L52.6052 55.8247C52.5989 55.848 52.5902 55.8786 52.5791 55.9158C52.5568 55.9903 52.5244 56.0919 52.4801 56.2167C52.3914 56.4662 52.2543 56.8099 52.0527 57.2175C51.6498 58.0322 50.9864 59.1076 49.9334 60.1942ZM50.2756 55.1869C50.2761 55.1852 50.2764 55.1842 50.2765 55.1838C50.2765 55.1835 50.2765 55.1835 50.2765 55.1838L50.2758 55.1862L50.2756 55.1869ZM25.96 71.9745C25.9596 71.9761 25.9593 71.9771 25.9592 71.9775L25.9598 71.9752L25.96 71.9745Z"
        fill="#FFDF58" />
    <path
        d="M23.0508 55.6981V25.2051H28.062L35.7935 44.8925C35.9844 45.3564 36.2094 45.9431 36.4684 46.6525C36.7412 47.3483 37.0139 48.0714 37.2866 48.8218C37.573 49.5586 37.8252 50.2339 38.0434 50.8479C38.2616 50.2339 38.507 49.5586 38.7797 48.8218C39.0661 48.0714 39.3388 47.3483 39.5979 46.6525C39.8706 45.9431 40.0956 45.3564 40.2728 44.8925L47.8816 25.2051H52.9133V55.6981H49.293V38.0162C49.293 36.9248 49.3066 35.7105 49.3339 34.3735C49.3611 33.0228 49.3884 31.6857 49.4157 30.3623C48.8293 31.9722 48.2907 33.4457 47.7998 34.7828C47.3089 36.1198 46.8999 37.1976 46.5726 38.0162L39.4956 55.6981H36.4684L29.3505 38.0162C29.0369 37.2386 28.6415 36.2221 28.1642 34.9669C27.687 33.7117 27.1552 32.3269 26.5688 30.8125C26.6097 32.0677 26.637 33.3229 26.6506 34.5781C26.6779 35.8333 26.6916 36.9793 26.6916 38.0162V55.6981H23.0508Z"
        fill="#242424" />
    <path
        d="M23.0508 70.5148V101.008H28.062L35.7935 81.3204C35.9844 80.8565 36.2094 80.2698 36.4684 79.5604C36.7412 78.8645 37.0139 78.1414 37.2866 77.3911C37.573 76.6543 37.8252 75.979 38.0434 75.365C38.2616 75.979 38.507 76.6543 38.7797 77.3911C39.0661 78.1414 39.3388 78.8645 39.5979 79.5604C39.8706 80.2698 40.0956 80.8565 40.2728 81.3204L47.8816 101.008H52.9133V70.5148H49.293V88.1966C49.293 89.2881 49.3066 90.5024 49.3339 91.8394C49.3611 93.1901 49.3884 94.5272 49.4157 95.8506C48.8293 94.2407 48.2907 92.7672 47.7998 91.4301C47.3089 90.0931 46.8999 89.0152 46.5726 88.1966L39.4956 70.5148H36.4684L29.3505 88.1966C29.0369 88.9743 28.6415 89.9908 28.1642 91.2459C27.687 92.5011 27.1552 93.8859 26.5688 95.4004C26.6097 94.1452 26.637 92.89 26.6506 91.6348C26.6779 90.3796 26.6916 89.2335 26.6916 88.1966V70.5148H23.0508Z"
        fill="#242424" />
</svg>