<svg width="283" height="180" viewBox="0 0 283 180" fill="none" xmlns="http://www.w3.org/2000/svg">
<path d="M103.337 74.0001C99.5202 74.0054 95.8341 75.4086 92.9586 77.951C90.0831 80.4934 88.2122 84.0034 87.691 87.8335H79.1589L77.1404 92.1665H87.1129C86.7067 94.3425 85.6975 96.3565 84.2032 97.9731C82.7089 99.5896 80.7913 100.742 78.6744 101.295C76.5575 101.849 74.3289 101.78 72.249 101.098C70.1691 100.416 68.324 99.1477 66.9291 97.4424C65.5343 95.7371 64.6474 93.6648 64.3722 91.4678C64.097 89.2708 64.4448 87.0398 65.3749 85.0356C66.3051 83.0314 67.7791 81.3368 69.6249 80.1499C71.4706 78.963 73.6117 78.3328 75.7979 78.333C78.2248 78.3245 80.5911 79.1009 82.5524 80.5491L84.4021 76.5784C81.844 74.8865 78.853 73.9902 75.7979 74.0001C72.7652 73.9994 69.7964 74.8833 67.2462 76.546C64.6961 78.2087 62.6724 80.58 61.4169 83.3765C60.1615 86.1731 59.7273 89.2766 60.1664 92.3164C60.6055 95.3562 61.8992 98.2036 63.8929 100.519C65.8867 102.834 68.4962 104.518 71.4097 105.371C74.3232 106.224 77.4175 106.209 80.3229 105.328C83.2283 104.447 85.822 102.738 87.794 100.404C89.766 98.07 91.0331 95.2103 91.4437 92.1665H99.9758L101.994 87.8336H92.0219C92.428 85.6575 93.4372 83.6435 94.9315 82.027C96.4258 80.4104 98.3435 79.2582 100.46 78.7048C102.577 78.1515 104.806 78.22 106.886 78.9023C108.966 79.5845 110.811 80.8524 112.206 82.5577C113.6 84.263 114.487 86.3353 114.762 88.5323C115.038 90.7293 114.69 92.9602 113.76 94.9644C112.83 96.9686 111.356 98.6632 109.51 99.8501C107.664 101.037 105.523 101.667 103.337 101.667C100.91 101.675 98.5436 100.899 96.5824 99.4509L94.7326 103.422C97.2907 105.113 100.282 106.01 103.337 106C107.525 105.998 111.54 104.312 114.501 101.311C117.461 98.3108 119.124 94.2422 119.124 90C119.124 85.7578 117.461 81.6892 114.501 78.6889C111.54 75.6885 107.525 74.002 103.337 74.0001H103.337Z" fill="#6E6E6E"/>
<path d="M139.107 81.6348H128.175V98.3881H131.361V84.6165H139.107V81.6348Z" fill="#6E6E6E"/>
<path d="M153.487 81.6348L145.107 93.0801V81.6348H141.92V98.3881H144.731L145.107 97.8757L153.133 86.9424V98.3881H156.32V81.6348H153.487Z" fill="#6E6E6E"/>
<path d="M172.563 93.2931C171.875 94.2889 170.894 95.0381 169.76 95.4331C168.625 95.828 167.397 95.8484 166.25 95.4911C165.104 95.1339 164.099 94.4175 163.38 93.4451C162.661 92.4726 162.265 91.2941 162.249 90.0793C162.233 88.8644 162.598 87.6757 163.291 86.6841C163.984 85.6926 164.97 84.9494 166.107 84.5613C167.243 84.1733 168.472 84.1605 169.616 84.5247C170.761 84.889 171.761 85.6115 172.474 86.5883L174.711 84.6675C173.866 83.6205 172.802 82.778 171.594 82.2016C170.387 81.6252 169.068 81.3295 167.733 81.336C162.841 81.336 158.875 85.2162 158.875 90.0026C158.875 94.789 162.841 98.6692 167.733 98.6692C169.091 98.6763 170.434 98.3701 171.658 97.7739C172.882 97.1776 173.956 96.307 174.799 95.2279L172.563 93.2931Z" fill="#6E6E6E"/>
<path d="M188.309 81.6348H177.377V98.3881H180.564V84.6165H188.309V81.6348Z" fill="#6E6E6E"/>
<path d="M202.689 81.6348L194.309 93.0801V81.6348H191.123V98.3881H193.933L194.309 97.8757L202.336 86.9424V98.3881H205.522V81.6348H202.689Z" fill="#6E6E6E"/>
<path d="M221.764 93.2931C221.076 94.2889 220.095 95.0381 218.961 95.4331C217.827 95.828 216.598 95.8484 215.452 95.4911C214.305 95.1339 213.3 94.4175 212.581 93.4451C211.862 92.4726 211.466 91.2941 211.45 90.0793C211.434 88.8644 211.799 87.6757 212.492 86.6841C213.185 85.6926 214.171 84.9494 215.308 84.5613C216.444 84.1733 217.673 84.1605 218.817 84.5247C219.962 84.889 220.962 85.6115 221.676 86.5883L223.912 84.6675C223.068 83.6205 222.003 82.778 220.795 82.2016C219.588 81.6252 218.269 81.3295 216.934 81.336C212.042 81.336 208.077 85.2162 208.077 90.0026C208.077 94.789 212.042 98.6692 216.934 98.6692C218.293 98.6763 219.635 98.3701 220.859 97.7739C222.083 97.1776 223.157 96.307 224 95.2279L221.764 93.2931Z" fill="#6E6E6E"/>
</svg>
