<svg width="283" height="180" viewBox="0 0 283 180" fill="none" xmlns="http://www.w3.org/2000/svg">
<g clip-path="url(#clip0_7011_5328)">
<path d="M110 44L112.075 50.1449H172.481L174.556 44H110Z" fill="#6E6E6E"/>
<path d="M153.855 70.0781L155.631 71.8616V100.523L153.983 102.181H160.766V70.0781H153.855Z" fill="#6E6E6E"/>
<path d="M156.703 53.7812V59.8636H150.176V53.7812H134.39V59.8636H127.852V53.7812H112.074V114.605C117.772 125.442 128.934 133.525 142.389 136.007C155.746 133.525 166.831 125.442 172.488 114.605V53.7812H156.703ZM136.22 68.1229H139.949V100.52L138.302 102.179H145.081V96.1811L148.806 92.4302V104.271H136.22V70.0719H134.723L132.769 68.1045L136.22 68.1229ZM120.066 71.8628L123.791 68.1119H128.85L132.575 71.8628V79.953L128.85 76.2021V70.0793H123.791V101.675L128.85 99.0531V84.6526H127.874L125.398 82.1594H128.85L132.575 85.9213V104.271L129.606 101.285L123.791 104.271L120.066 100.52V71.8628ZM162.433 114.752H122.118L120.066 111.233H164.489L162.433 114.752ZM164.486 100.52L160.768 104.271H151.903V70.1639H150.49L148.452 68.1119H160.768L164.493 71.8628L164.486 100.52Z" fill="#6E6E6E"/>
</g>
<defs>
<clipPath id="clip0_7011_5328">
<rect width="64" height="92" fill="white" transform="translate(110 44)"/>
</clipPath>
</defs>
</svg>
