<svg width="283" height="180" viewBox="0 0 283 180" fill="none" xmlns="http://www.w3.org/2000/svg">
<g clip-path="url(#clip0_7011_5328)">
<path d="M81.9269 104.973C81.8077 104.973 81.6899 104.947 81.5819 104.897C81.474 104.847 81.3785 104.774 81.3025 104.683C81.2263 104.592 81.1714 104.485 81.1416 104.371C81.1117 104.257 81.1077 104.138 81.1298 104.022L82.7294 95.6077C82.7591 95.4487 82.8371 95.3024 82.953 95.1885L102.542 75.806C102.657 75.6916 102.805 75.6144 102.966 75.5848L111.468 74.0022C111.598 73.978 111.732 73.9855 111.858 74.0241C111.984 74.0626 112.099 74.1311 112.192 74.2234C112.286 74.3157 112.355 74.4293 112.394 74.5541C112.433 74.6789 112.441 74.8113 112.416 74.9397L110.816 83.3533C110.787 83.5123 110.709 83.6585 110.593 83.7728L91.0059 103.155C90.8908 103.27 90.7431 103.347 90.5826 103.376L82.0798 104.959C82.0294 104.969 81.9782 104.973 81.9269 104.973ZM111.618 74.5118C111.6 74.512 111.582 74.5136 111.564 74.5168L103.062 76.0997C103.006 76.1099 102.954 76.1368 102.914 76.1766L83.3285 95.56C83.2884 95.5998 83.2612 95.6506 83.2505 95.7057L81.6512 104.12C81.6423 104.165 81.6448 104.211 81.6585 104.254C81.672 104.297 81.6963 104.337 81.7291 104.369C81.7615 104.401 81.8014 104.425 81.8452 104.438C81.8889 104.451 81.9354 104.454 81.9804 104.446L90.4835 102.863C90.5392 102.852 90.5903 102.826 90.6301 102.786L110.217 83.4036C110.257 83.3639 110.284 83.3132 110.295 83.2579L111.894 74.844C111.902 74.8038 111.901 74.7624 111.89 74.7228C111.88 74.6832 111.861 74.6462 111.835 74.6147C111.809 74.5831 111.776 74.5577 111.738 74.54C111.701 74.5225 111.66 74.5131 111.619 74.5128L111.618 74.5118Z" fill="#6E6E6E"/>
<path d="M111.617 104.973C111.567 104.973 111.517 104.968 111.467 104.959L102.965 103.376C102.804 103.347 102.656 103.27 102.541 103.155L82.9539 83.7729C82.8382 83.6587 82.7602 83.5124 82.7305 83.3533L81.1307 74.9397C81.1063 74.8113 81.1139 74.679 81.1528 74.5541C81.1918 74.4292 81.261 74.3157 81.3544 74.2233C81.4478 74.1309 81.5626 74.0624 81.6887 74.0239C81.815 73.9854 81.9487 73.978 82.0785 74.0022L90.5812 75.5849C90.7416 75.6146 90.8892 75.6918 91.0046 75.8061L110.592 95.1882C110.707 95.3025 110.785 95.449 110.815 95.6081L112.415 104.022C112.437 104.138 112.433 104.257 112.403 104.371C112.373 104.486 112.318 104.592 112.242 104.683C112.166 104.774 112.07 104.847 111.962 104.897C111.854 104.947 111.737 104.973 111.617 104.973ZM81.9269 74.5119C81.8856 74.5123 81.8449 74.5216 81.8076 74.5392C81.7703 74.5568 81.7374 74.5823 81.7112 74.6139C81.685 74.6454 81.6661 74.6823 81.6558 74.722C81.6455 74.7616 81.6441 74.8029 81.6518 74.8431L83.2512 83.257C83.2618 83.3122 83.289 83.3629 83.3291 83.4027L102.916 102.785C102.956 102.825 103.007 102.851 103.063 102.862L111.566 104.445C111.611 104.453 111.657 104.45 111.701 104.437C111.745 104.424 111.785 104.4 111.817 104.368C111.85 104.335 111.874 104.296 111.887 104.253C111.901 104.209 111.904 104.163 111.895 104.119L110.295 95.7051C110.285 95.6498 110.258 95.5989 110.218 95.5591L90.6308 76.177C90.5909 76.1371 90.5396 76.1103 90.4838 76.1001L81.9811 74.5172C81.9632 74.514 81.9451 74.5122 81.9269 74.5119Z" fill="#6E6E6E"/>
<path d="M96.7722 111.059C96.6403 111.059 96.5103 111.027 96.3937 110.966C96.2771 110.905 96.1773 110.817 96.1028 110.709L91.2209 103.641C91.1283 103.508 91.0791 103.35 91.0796 103.188V75.7777C91.0792 75.6161 91.1284 75.4581 91.2209 75.3247L96.1022 68.256C96.1766 68.1482 96.2765 68.06 96.3931 67.9991C96.5097 67.9381 96.6396 67.9063 96.7715 67.9062C96.9034 67.9063 97.0333 67.9382 97.1499 67.9992C97.2666 68.0601 97.3664 68.1482 97.4409 68.256L102.322 75.3247C102.414 75.4581 102.463 75.6161 102.463 75.7777V103.188C102.463 103.35 102.414 103.508 102.322 103.641L97.4425 110.708C97.3681 110.816 97.2682 110.905 97.1513 110.966C97.0345 111.027 96.9043 111.059 96.7722 111.059ZM96.7722 68.4295C96.7261 68.429 96.6805 68.4399 96.6396 68.4611C96.5987 68.4823 96.5638 68.5132 96.5379 68.551L91.6566 75.6197C91.6247 75.6661 91.6077 75.721 91.6077 75.777V103.188C91.6077 103.244 91.6247 103.299 91.6566 103.345L96.5379 110.414C96.5637 110.452 96.5986 110.483 96.6395 110.504C96.6804 110.525 96.726 110.536 96.7722 110.535C96.8184 110.536 96.864 110.525 96.905 110.504C96.9458 110.483 96.9807 110.452 97.0065 110.414L101.886 103.343C101.918 103.297 101.935 103.242 101.935 103.186V75.7751C101.935 75.7189 101.918 75.664 101.886 75.6177L97.0051 68.549C96.9794 68.5115 96.9447 68.4808 96.904 68.4598C96.8633 68.4387 96.818 68.428 96.7722 68.4285V68.4295Z" fill="#6E6E6E"/>
<path d="M102.423 103.006L96.7285 97.3709L91.034 103.006V95.0391H82.9834L88.6776 89.4043L82.9834 83.7699H91.034V75.8027L96.7285 81.4375L102.423 75.8027V83.7699H110.473L104.778 89.405L110.473 95.0391H102.423V103.006ZM97.1017 97.0003L101.892 101.741V95.0391H99.0836L97.1017 97.0003ZM91.5644 95.0391V101.741L96.3551 97.0003L94.3732 95.0391H91.5644ZM95.1218 95.0391L96.7282 96.6287L98.3346 95.0391H95.1218ZM102.424 94.5153H109.196L104.405 89.7749L102.424 91.7361V94.5153ZM99.6154 94.5153H101.894V92.26L99.6154 94.5153ZM94.5924 94.5153H98.8664L101.894 91.5189V87.2895L98.8664 84.2932H94.5914L91.5634 87.2895V91.5192L94.5924 94.5153ZM91.5644 94.5153H93.8434L91.5644 92.26V94.5153ZM84.2628 94.5153H91.035V91.7361L89.0531 89.7749L84.2628 94.5153ZM102.424 87.8138V90.9949L104.03 89.4053L102.424 87.8138ZM89.4276 89.4033L91.034 90.9929V87.8118L89.4276 89.4033ZM102.424 87.0713L104.405 89.0328L109.196 84.2922H102.423L102.424 87.0713ZM84.2628 84.2922L89.0521 89.0355L91.034 87.0739V84.2932L84.2628 84.2922ZM99.6154 84.2922L101.894 86.5474V84.2922H99.6154ZM91.5644 84.2922V86.5474L93.8434 84.2922H91.5644ZM99.0856 83.7682H101.894V77.0678L97.1037 81.8081L99.0856 83.7682ZM95.1218 83.7682H98.337L96.7306 82.1787L95.1218 83.7682ZM91.5644 83.7682H94.3732L96.3551 81.8071L91.5644 77.0678V83.7682Z" fill="#6E6E6E"/>
<path d="M110.623 95.1149H82.9228C82.7594 95.1151 82.5997 95.0663 82.4649 94.9748L75.3216 90.1444C75.2128 90.0707 75.1239 89.9718 75.0624 89.8565C75.0009 89.741 74.9688 89.6126 74.9688 89.4821C74.9688 89.3516 75.0009 89.2232 75.0624 89.1077C75.1239 88.9923 75.2128 88.8935 75.3216 88.8198L82.4649 83.9894C82.5998 83.8982 82.7595 83.8495 82.9228 83.8496H110.623C110.786 83.8495 110.946 83.8982 111.08 83.9894L118.223 88.8198C118.332 88.8934 118.421 88.9922 118.483 89.1077C118.544 89.2231 118.577 89.3516 118.577 89.4821C118.577 89.6126 118.544 89.7411 118.483 89.8566C118.421 89.9719 118.332 90.0708 118.223 90.1444L111.08 94.9748C110.946 95.0663 110.786 95.1151 110.623 95.1149ZM82.9228 84.3722C82.8659 84.3722 82.8104 84.3892 82.7635 84.4209L75.6205 89.2512C75.5825 89.2768 75.5514 89.3111 75.53 89.3513C75.5085 89.3914 75.4973 89.4362 75.4973 89.4816C75.4973 89.5271 75.5085 89.5718 75.53 89.6119C75.5514 89.6521 75.5825 89.6864 75.6205 89.7119L82.7635 94.5423C82.8104 94.5741 82.8659 94.591 82.9228 94.591H110.623C110.679 94.591 110.735 94.574 110.782 94.5423L117.925 89.7119C117.963 89.6864 117.994 89.6521 118.015 89.6119C118.037 89.5718 118.048 89.5271 118.048 89.4816C118.048 89.4362 118.037 89.3914 118.015 89.3513C117.994 89.3111 117.963 89.2768 117.925 89.2512L110.782 84.4209C110.735 84.3892 110.679 84.3722 110.623 84.3722H82.9228Z" fill="#6E6E6E"/>
<path d="M98.9698 68.3058L102.924 74.027C102.953 74.0687 102.994 74.1012 103.041 74.1206C103.088 74.14 103.14 74.1455 103.19 74.1363L110.117 72.8746C110.153 72.868 110.187 72.8544 110.217 72.8344C110.247 72.8143 110.272 72.7884 110.292 72.7581C110.311 72.7279 110.324 72.694 110.33 72.6586C110.335 72.6231 110.334 72.587 110.324 72.5523L107.867 63.1956C107.857 63.1565 107.838 63.1203 107.811 63.0898C107.785 63.0593 107.751 63.0354 107.713 63.0199C107.676 63.0044 107.635 62.9978 107.594 63.0006C107.553 63.0034 107.514 63.0155 107.479 63.036L99.0541 67.9336C99.0229 67.9517 98.9958 67.9759 98.9745 68.0048C98.9532 68.0337 98.9381 68.0666 98.9302 68.1016C98.9223 68.1365 98.9217 68.1726 98.9285 68.2077C98.9354 68.2429 98.9494 68.2762 98.9698 68.3058Z" fill="#6E6E6E"/>
<path d="M113.539 76.2544L112.244 83.0831C112.234 83.133 112.239 83.1847 112.259 83.2318C112.278 83.2788 112.311 83.3192 112.354 83.348L118.167 87.3117C118.196 87.3321 118.23 87.3462 118.266 87.3531C118.302 87.36 118.338 87.3595 118.374 87.3517C118.409 87.3439 118.443 87.329 118.472 87.3078C118.501 87.2866 118.526 87.2596 118.544 87.2286L123.504 78.8743C123.525 78.8395 123.537 78.8003 123.54 78.7599C123.543 78.7195 123.536 78.6791 123.52 78.6416C123.505 78.6043 123.481 78.571 123.45 78.5444C123.419 78.5178 123.382 78.4987 123.343 78.4885L113.865 76.0515C113.83 76.0424 113.793 76.0406 113.758 76.046C113.722 76.0515 113.688 76.064 113.657 76.0831C113.627 76.1021 113.6 76.1271 113.58 76.1566C113.56 76.1861 113.545 76.2194 113.539 76.2544Z" fill="#6E6E6E"/>
<path d="M83.5629 72.7674L90.2664 74.0122C90.3153 74.0212 90.3657 74.0161 90.4116 73.9973C90.4575 73.9786 90.497 73.947 90.5251 73.9066L94.4162 68.3185C94.4365 68.2897 94.4504 68.2571 94.4573 68.2228C94.4641 68.1884 94.4638 68.153 94.4561 68.1188C94.4485 68.0845 94.4337 68.0523 94.4129 68.0239C94.392 67.9956 94.3655 67.9719 94.3349 67.9542L86.1331 63.1854C86.0988 63.1655 86.0604 63.1537 86.0208 63.151C85.9812 63.1483 85.9415 63.1547 85.9049 63.1697C85.8681 63.1847 85.8355 63.208 85.8094 63.2376C85.7834 63.2672 85.7646 63.3024 85.7546 63.3404L83.3617 72.4521C83.3526 72.486 83.3506 72.5212 83.356 72.5558C83.3613 72.5905 83.3738 72.6236 83.3927 72.6532C83.4116 72.6829 83.4364 72.7082 83.4657 72.7279C83.495 72.7475 83.528 72.761 83.5629 72.7674Z" fill="#6E6E6E"/>
<path d="M75.3738 87.3189L81.1688 83.3962C81.211 83.3677 81.2439 83.3277 81.2635 83.281C81.2831 83.2343 81.2885 83.183 81.2792 83.1333L80.0012 76.2629C79.9946 76.2276 79.9807 76.194 79.9605 76.1642C79.9402 76.1344 79.914 76.109 79.8833 76.0898C79.8527 76.0704 79.8184 76.0576 79.7825 76.052C79.7466 76.0464 79.71 76.0482 79.6749 76.0573L70.1976 78.4943C70.1581 78.5045 70.1215 78.5237 70.0907 78.5502C70.0599 78.5768 70.0357 78.6101 70.0201 78.6474C70.0045 78.6847 69.9978 78.7251 70.0006 78.7655C70.0034 78.8058 70.0157 78.8449 70.0363 78.8798L74.9967 87.2354C75.0151 87.2663 75.0397 87.2932 75.069 87.3142C75.0983 87.3353 75.1316 87.3502 75.167 87.358C75.2023 87.3659 75.2389 87.3665 75.2745 87.3597C75.3101 87.353 75.3439 87.3391 75.3738 87.3189Z" fill="#6E6E6E"/>
<path d="M80.007 102.707L81.3015 95.8786C81.3112 95.8286 81.306 95.777 81.2865 95.73C81.267 95.6829 81.2341 95.6425 81.1918 95.6136L75.379 91.6516C75.3491 91.6312 75.3153 91.6172 75.2796 91.6103C75.244 91.6034 75.2073 91.6039 75.1719 91.6116C75.1364 91.6194 75.103 91.6343 75.0736 91.6554C75.0442 91.6765 75.0196 91.7035 75.0012 91.7344L70.0412 100.089C70.0205 100.124 70.0083 100.163 70.0055 100.203C70.0027 100.244 70.0094 100.284 70.0251 100.322C70.0407 100.359 70.0649 100.392 70.0958 100.419C70.1266 100.445 70.1632 100.464 70.2028 100.475L79.6807 102.912C79.7158 102.921 79.7524 102.923 79.7882 102.917C79.824 102.912 79.8583 102.899 79.8889 102.88C79.9195 102.86 79.9458 102.835 79.9661 102.805C79.9864 102.776 80.0004 102.742 80.007 102.707Z" fill="#6E6E6E"/>
<path d="M94.5764 110.655L90.6217 104.934C90.5929 104.892 90.5525 104.86 90.5053 104.84C90.4583 104.821 90.4065 104.815 90.3563 104.825L83.4289 106.086C83.3932 106.093 83.3593 106.106 83.3293 106.127C83.2992 106.147 83.2737 106.172 83.2542 106.203C83.2348 106.233 83.2217 106.267 83.2161 106.302C83.2105 106.338 83.2123 106.374 83.2213 106.409L85.6787 115.766C85.689 115.805 85.7082 115.841 85.7349 115.871C85.7617 115.902 85.7953 115.926 85.8329 115.941C85.8706 115.957 85.9114 115.963 85.952 115.96C85.9927 115.958 86.0322 115.945 86.0673 115.925L94.492 111.027C94.5232 111.009 94.5503 110.985 94.5716 110.956C94.5929 110.927 94.608 110.894 94.616 110.859C94.6239 110.824 94.6244 110.788 94.6176 110.753C94.6108 110.718 94.5968 110.685 94.5764 110.655Z" fill="#6E6E6E"/>
<path d="M110.128 106.081L103.242 104.801C103.192 104.792 103.14 104.797 103.093 104.817C103.046 104.836 103.005 104.868 102.976 104.91L98.9786 110.651C98.958 110.68 98.9439 110.714 98.937 110.749C98.93 110.784 98.9306 110.82 98.9384 110.855C98.9462 110.89 98.9613 110.923 98.9826 110.952C99.0039 110.981 99.031 111.005 99.0622 111.024L107.488 115.922C107.524 115.942 107.563 115.954 107.604 115.957C107.644 115.96 107.685 115.953 107.723 115.938C107.761 115.923 107.794 115.899 107.821 115.868C107.848 115.838 107.867 115.802 107.877 115.763L110.335 106.402C110.344 106.368 110.346 106.332 110.34 106.296C110.334 106.261 110.321 106.227 110.302 106.198C110.283 106.167 110.257 106.142 110.227 106.122C110.198 106.102 110.164 106.088 110.128 106.081Z" fill="#6E6E6E"/>
<path d="M118.171 91.6429L112.376 95.5652C112.333 95.5939 112.3 95.6343 112.281 95.6814C112.261 95.7284 112.256 95.7801 112.265 95.8301L113.544 102.7C113.55 102.735 113.564 102.769 113.584 102.799C113.604 102.829 113.631 102.854 113.661 102.873C113.692 102.893 113.726 102.905 113.762 102.911C113.798 102.917 113.835 102.915 113.87 102.906L123.347 100.469C123.386 100.459 123.423 100.439 123.454 100.413C123.485 100.386 123.509 100.353 123.524 100.316C123.54 100.278 123.547 100.238 123.544 100.198C123.541 100.157 123.529 100.118 123.508 100.083L118.548 91.728C118.53 91.6969 118.505 91.6699 118.476 91.6486C118.447 91.6273 118.414 91.6122 118.378 91.6042C118.343 91.5962 118.306 91.5955 118.27 91.6022C118.235 91.6089 118.201 91.6227 118.171 91.6429Z" fill="#6E6E6E"/>
<path d="M100.759 75.3581L97.1107 70.075C97.0729 70.0211 97.0225 69.9771 96.9638 69.9467C96.905 69.9163 96.8397 69.9004 96.7734 69.9004C96.7071 69.9004 96.6418 69.9163 96.583 69.9467C96.5243 69.9771 96.4738 70.0211 96.4361 70.075L92.7882 75.3581C92.4148 75.8387 92.8585 76.2774 93.1102 76.5264L94.7323 78.1316C94.752 78.1511 94.776 78.1658 94.8024 78.1747C94.8288 78.1836 94.8569 78.1862 94.8845 78.1826C94.9122 78.179 94.9385 78.1691 94.9617 78.1538C94.9849 78.1385 95.0041 78.1181 95.0181 78.0942L96.6161 75.3555C96.632 75.3282 96.655 75.3055 96.6826 75.2897C96.7102 75.274 96.7415 75.2657 96.7734 75.2657C96.8053 75.2657 96.8366 75.274 96.8642 75.2897C96.8918 75.3055 96.9148 75.3282 96.9307 75.3555L98.5287 78.0942C98.5426 78.1181 98.5619 78.1385 98.5851 78.1538C98.6082 78.1691 98.6346 78.179 98.6623 78.1826C98.6899 78.1862 98.718 78.1836 98.7444 78.1747C98.7708 78.1658 98.7947 78.1511 98.8145 78.1316L100.437 76.5264C100.689 76.2774 101.104 75.9039 100.759 75.3581Z" fill="#6E6E6E"/>
<path d="M83.8628 96.679L82.6667 102.967C82.6549 103.031 82.6591 103.098 82.6789 103.16C82.6986 103.223 82.7335 103.28 82.7804 103.326C82.8272 103.372 82.8848 103.407 82.948 103.427C83.0112 103.446 83.0784 103.45 83.1436 103.439L89.4988 102.256C90.1062 102.178 90.1059 101.557 90.1059 101.205V98.9346C90.1059 98.907 90.0996 98.8798 90.0872 98.8551C90.075 98.8304 90.0571 98.8087 90.035 98.7919C90.0129 98.7752 89.9871 98.7636 89.9598 98.7583C89.9325 98.753 89.9042 98.7539 89.8773 98.7611L86.7904 99.5797C86.7597 99.5879 86.7272 99.5879 86.6964 99.5797C86.6656 99.5715 86.6374 99.5555 86.615 99.5332C86.5924 99.5109 86.5762 99.483 86.5679 99.4526C86.5597 99.422 86.5597 99.39 86.5679 99.3595L87.3948 96.3045C87.4021 96.2779 87.403 96.2499 87.3976 96.2229C87.3922 96.1959 87.3806 96.1704 87.3636 96.1485C87.3467 96.1267 87.3248 96.109 87.2998 96.0968C87.2749 96.0846 87.2473 96.0783 87.2195 96.0783H84.9253C84.571 96.0783 84.0098 96.0521 83.8628 96.679Z" fill="#6E6E6E"/>
<path d="M104.048 102.256L110.402 103.44C110.467 103.452 110.534 103.447 110.597 103.428C110.661 103.408 110.718 103.374 110.765 103.327C110.812 103.281 110.847 103.224 110.866 103.161C110.886 103.099 110.89 103.032 110.879 102.968L109.684 96.6788C109.605 96.0778 108.977 96.0781 108.621 96.0781H106.327C106.299 96.0781 106.272 96.0844 106.247 96.0966C106.222 96.1088 106.2 96.1264 106.183 96.1484C106.166 96.1702 106.154 96.1957 106.149 96.2227C106.144 96.2498 106.145 96.2777 106.152 96.3043L106.979 99.359C106.987 99.3894 106.987 99.4217 106.979 99.4522C106.971 99.4827 106.955 99.5105 106.932 99.5329C106.909 99.5553 106.881 99.5713 106.85 99.5794C106.82 99.5876 106.787 99.5875 106.756 99.5792L103.669 98.7609C103.642 98.7537 103.614 98.7527 103.587 98.7581C103.56 98.7635 103.534 98.775 103.512 98.7918C103.49 98.8086 103.472 98.8301 103.459 98.8549C103.447 98.8796 103.441 98.9068 103.441 98.9345V101.205C103.44 101.557 103.414 102.111 104.048 102.256Z" fill="#6E6E6E"/>
<path d="M109.683 82.2816L110.879 75.9941C110.891 75.9295 110.887 75.8631 110.867 75.8005C110.847 75.7379 110.812 75.681 110.765 75.6346C110.719 75.5882 110.661 75.5537 110.598 75.5342C110.534 75.5145 110.467 75.5105 110.402 75.5221L104.047 76.7044C103.44 76.7829 103.439 77.4035 103.439 77.7559V80.026C103.44 80.0536 103.446 80.0808 103.458 80.1055C103.471 80.1303 103.489 80.1518 103.511 80.1686C103.533 80.1854 103.559 80.1969 103.586 80.2023C103.613 80.2076 103.641 80.2067 103.668 80.1995L106.755 79.3812C106.786 79.373 106.819 79.373 106.849 79.3812C106.88 79.3894 106.908 79.4055 106.931 79.4278C106.953 79.4501 106.97 79.4779 106.978 79.5084C106.986 79.5388 106.986 79.571 106.978 79.6014L106.151 82.6561C106.143 82.6827 106.142 82.7106 106.148 82.7377C106.153 82.7648 106.165 82.7902 106.182 82.812C106.199 82.8339 106.221 82.8516 106.246 82.8638C106.271 82.876 106.298 82.8823 106.326 82.8823H108.62C108.976 82.884 109.536 82.9107 109.683 82.2816Z" fill="#6E6E6E"/>
<path d="M82.5007 85.5379L77.1618 89.1476C77.1074 89.185 77.0629 89.2349 77.0321 89.293C77.0014 89.3511 76.9854 89.4158 76.9854 89.4814C76.9854 89.547 77.0014 89.6116 77.0321 89.6698C77.0629 89.7279 77.1074 89.7778 77.1618 89.8153L82.5007 93.4249C82.986 93.7945 83.4294 93.3558 83.6814 93.1063L85.3035 91.5012C85.3232 91.4817 85.338 91.458 85.347 91.4318C85.3559 91.4057 85.3587 91.3779 85.355 91.3506C85.3514 91.3232 85.3414 91.2971 85.3259 91.2742C85.3104 91.2512 85.2898 91.2321 85.2656 91.2183L82.498 89.6371C82.4705 89.6213 82.4475 89.5986 82.4316 89.5713C82.4157 89.544 82.4073 89.513 82.4073 89.4814C82.4073 89.4499 82.4157 89.4189 82.4316 89.3916C82.4475 89.3643 82.4705 89.3416 82.498 89.3258L85.2656 87.7444C85.2898 87.7307 85.3104 87.7116 85.3259 87.6887C85.3414 87.6657 85.3514 87.6396 85.355 87.6123C85.3587 87.585 85.3559 87.5571 85.347 87.531C85.338 87.5049 85.3232 87.4811 85.3035 87.4616L83.6814 85.8574C83.4294 85.6075 83.0522 85.1971 82.5007 85.5379Z" fill="#6E6E6E"/>
<path d="M92.7889 103.606L96.4367 108.888C96.4745 108.942 96.5249 108.986 96.5837 109.017C96.6424 109.047 96.7077 109.063 96.774 109.063C96.8403 109.063 96.9057 109.047 96.9645 109.017C97.0232 108.986 97.0736 108.942 97.1113 108.888L100.759 103.606C101.133 103.125 100.689 102.686 100.437 102.437L98.8152 100.832C98.7954 100.812 98.7714 100.798 98.7451 100.789C98.7186 100.78 98.6905 100.777 98.6629 100.781C98.6353 100.784 98.6089 100.794 98.5857 100.81C98.5625 100.825 98.5433 100.845 98.5293 100.869L96.9313 103.608C96.9154 103.635 96.8924 103.658 96.8648 103.674C96.8372 103.689 96.8059 103.698 96.774 103.698C96.7422 103.698 96.7108 103.689 96.6832 103.674C96.6556 103.658 96.6327 103.635 96.6168 103.608L95.0187 100.869C95.0049 100.845 94.9855 100.825 94.9624 100.81C94.9392 100.794 94.9128 100.784 94.8851 100.781C94.8575 100.777 94.8294 100.78 94.803 100.789C94.7766 100.798 94.7527 100.812 94.7329 100.832L93.1108 102.437C92.8588 102.686 92.4445 103.06 92.7889 103.606Z" fill="#6E6E6E"/>
<path d="M111.046 93.4237L116.385 89.8141C116.439 89.7766 116.484 89.7268 116.514 89.6686C116.545 89.6105 116.561 89.5458 116.561 89.4803C116.561 89.4146 116.545 89.35 116.514 89.2919C116.484 89.2338 116.439 89.1838 116.385 89.1465L111.046 85.5367C110.561 85.1672 110.117 85.6063 109.865 85.8553L108.243 87.4604C108.223 87.48 108.208 87.5037 108.2 87.5299C108.191 87.5559 108.188 87.5838 108.191 87.6111C108.195 87.6385 108.205 87.6646 108.221 87.6875C108.236 87.7104 108.257 87.7295 108.281 87.7433L111.049 89.3246C111.076 89.3404 111.099 89.3631 111.115 89.3904C111.131 89.4178 111.14 89.4488 111.14 89.4804C111.14 89.512 111.131 89.543 111.115 89.5704C111.099 89.5978 111.076 89.6205 111.049 89.6362L108.281 91.2172C108.257 91.231 108.236 91.2501 108.221 91.273C108.205 91.2959 108.195 91.3221 108.191 91.3494C108.188 91.3768 108.191 91.4045 108.2 91.4307C108.208 91.4568 108.223 91.4805 108.243 91.5L109.865 93.1052C110.117 93.3546 110.494 93.7645 111.046 93.4237Z" fill="#6E6E6E"/>
<path d="M89.5837 76.7294L83.2298 75.5455C83.1646 75.5339 83.0974 75.538 83.0341 75.5577C82.9709 75.5773 82.9133 75.6117 82.8665 75.6581C82.8196 75.7045 82.7848 75.7615 82.7649 75.8241C82.7451 75.8867 82.7409 75.9531 82.7526 76.0177L83.9477 82.3065C84.0269 82.9073 84.6541 82.9073 85.0102 82.9073H87.3043C87.3321 82.9073 87.3596 82.9009 87.3845 82.8887C87.4095 82.8765 87.4313 82.8588 87.4483 82.8369C87.4652 82.8151 87.4769 82.7897 87.4823 82.7626C87.4877 82.7356 87.4868 82.7077 87.4797 82.6811L86.6524 79.6261C86.6441 79.5956 86.6441 79.5635 86.6524 79.5331C86.6607 79.5025 86.6769 79.4748 86.6994 79.4524C86.722 79.4301 86.7501 79.4141 86.7809 79.4059C86.8117 79.3977 86.8441 79.3977 86.8749 79.4059L89.9622 80.2245C89.9891 80.2317 90.0173 80.2326 90.0446 80.2273C90.072 80.2219 90.0977 80.2104 90.1198 80.1936C90.1419 80.1768 90.1598 80.1552 90.1721 80.1305C90.1844 80.1058 90.1908 80.0785 90.1908 80.051V77.7808C90.1908 77.4285 90.2172 76.8745 89.5837 76.7294Z" fill="#6E6E6E"/>
<path d="M94.4461 82.0252L94.0609 82.4064C93.923 82.5428 93.7361 82.6195 93.5412 82.6197H92.992C92.8742 82.6196 92.7613 82.5732 92.678 82.4907C92.5947 82.4083 92.5479 82.2965 92.5479 82.1799V79.9319C92.5479 79.8986 92.5579 79.8661 92.5766 79.8385C92.5954 79.8108 92.6219 79.7893 92.653 79.7765C92.684 79.7637 92.7182 79.7604 92.7513 79.7669C92.7842 79.7733 92.8145 79.7893 92.8384 79.8127L94.4447 81.4024C94.4863 81.4431 94.5193 81.4915 94.542 81.5449C94.5646 81.5983 94.5763 81.6556 94.5763 81.7135C94.5765 81.7714 94.565 81.8287 94.5427 81.8823C94.5204 81.9357 94.4875 81.9844 94.4461 82.0252Z" fill="#6E6E6E"/>
<path d="M100.446 82.5843H99.9006C99.7059 82.584 99.5191 82.5075 99.3813 82.3713L98.9931 81.9871C98.9517 81.9463 98.919 81.8979 98.8966 81.8445C98.8743 81.7911 98.8628 81.734 98.8628 81.6762C98.8628 81.6184 98.8743 81.5612 98.8966 81.5078C98.919 81.4545 98.9517 81.4061 98.9931 81.3652L100.599 79.7756C100.623 79.7522 100.654 79.7362 100.687 79.7298C100.72 79.7233 100.754 79.7266 100.785 79.7394C100.816 79.7522 100.842 79.7737 100.861 79.8014C100.88 79.829 100.89 79.8615 100.89 79.8948V82.1445C100.89 82.2022 100.879 82.2593 100.856 82.3127C100.834 82.366 100.801 82.4145 100.76 82.4554C100.719 82.4962 100.67 82.5286 100.616 82.5507C100.562 82.5728 100.504 82.5843 100.446 82.5843Z" fill="#6E6E6E"/>
<path d="M104.289 87.1771L103.904 86.796C103.767 86.6595 103.689 86.4746 103.689 86.2817V85.7382C103.689 85.6217 103.736 85.5099 103.819 85.4275C103.902 85.3451 104.015 85.2988 104.133 85.2988H106.405C106.439 85.2988 106.472 85.3086 106.5 85.3271C106.528 85.3456 106.55 85.3719 106.562 85.4028C106.575 85.4335 106.579 85.4674 106.572 85.5001C106.565 85.5328 106.549 85.5628 106.525 85.5862L104.919 87.1758C104.878 87.2169 104.829 87.2495 104.775 87.2717C104.721 87.294 104.663 87.3055 104.604 87.3056C104.546 87.3058 104.488 87.2945 104.434 87.2725C104.38 87.2504 104.331 87.218 104.289 87.1771Z" fill="#6E6E6E"/>
<path d="M103.725 93.1134V92.574C103.725 92.3811 103.802 92.1961 103.94 92.0596L104.328 91.6755C104.411 91.5931 104.524 91.5469 104.642 91.5469C104.76 91.5469 104.873 91.5931 104.956 91.6755L106.563 93.2651C106.586 93.2886 106.603 93.3187 106.609 93.3513C106.616 93.3841 106.613 93.418 106.6 93.4487C106.587 93.4796 106.565 93.5059 106.537 93.5244C106.509 93.5428 106.476 93.5527 106.442 93.5525H104.169C104.051 93.5525 103.938 93.5063 103.855 93.424C103.772 93.3416 103.725 93.2299 103.725 93.1134Z" fill="#6E6E6E"/>
<path d="M99.0826 96.9183L99.4682 96.5371C99.5364 96.4696 99.6174 96.416 99.7066 96.3795C99.7958 96.3429 99.8914 96.3241 99.9879 96.3242H100.537C100.655 96.3242 100.767 96.3705 100.851 96.4529C100.934 96.5354 100.981 96.6471 100.981 96.7636V99.0116C100.981 99.0449 100.971 99.0776 100.952 99.1054C100.934 99.1331 100.907 99.1548 100.876 99.1675C100.845 99.1803 100.811 99.1836 100.777 99.1771C100.744 99.1706 100.714 99.1545 100.69 99.1308L99.084 97.5412C99.0424 97.5005 99.0095 97.452 98.987 97.3986C98.9644 97.3452 98.9528 97.288 98.9526 97.2301C98.9525 97.1722 98.964 97.1148 98.9862 97.0614C99.0085 97.0078 99.0413 96.9593 99.0826 96.9183Z" fill="#6E6E6E"/>
<path d="M93.0831 96.3594H93.6279C93.8229 96.3596 94.0098 96.4363 94.1477 96.5727L94.5359 96.9568C94.6191 97.0393 94.6658 97.1511 94.6658 97.2677C94.6658 97.3842 94.6191 97.496 94.5359 97.5785L92.9295 99.168C92.9057 99.1916 92.8753 99.2076 92.8422 99.2142C92.8092 99.2207 92.7749 99.2173 92.7438 99.2046C92.7127 99.1918 92.6861 99.1702 92.6674 99.1424C92.6487 99.1148 92.6387 99.0822 92.6387 99.0488V96.7992C92.6387 96.6826 92.6856 96.5708 92.7689 96.4883C92.8522 96.4059 92.9653 96.3595 93.0831 96.3594Z" fill="#6E6E6E"/>
<path d="M89.239 91.7653L89.6246 92.1469C89.7622 92.2833 89.8396 92.4681 89.8398 92.6608V93.2043C89.8397 93.3208 89.7928 93.4327 89.7095 93.515C89.6261 93.5975 89.5132 93.6437 89.3953 93.6437H87.1236C87.0901 93.6437 87.0572 93.6338 87.0292 93.6153C87.0013 93.5968 86.9795 93.5705 86.9666 93.5397C86.9537 93.509 86.9503 93.4752 86.9568 93.4426C86.9633 93.4099 86.9795 93.3799 87.0032 93.3563L88.6095 91.7667C88.6507 91.7256 88.6997 91.693 88.7537 91.6707C88.8077 91.6484 88.8655 91.6369 88.924 91.6367C88.9825 91.6366 89.0405 91.6479 89.0945 91.67C89.1486 91.6921 89.1976 91.7245 89.239 91.7653Z" fill="#6E6E6E"/>
<path d="M89.8039 85.8284V86.3676C89.8037 86.5604 89.7263 86.7453 89.5887 86.8819L89.2005 87.266C89.1171 87.3484 89.0042 87.3946 88.8864 87.3946C88.7686 87.3946 88.6556 87.3484 88.5723 87.266L86.9659 85.6765C86.9421 85.6528 86.9259 85.6228 86.9193 85.5901C86.9127 85.5574 86.9161 85.5235 86.929 85.4927C86.9419 85.4618 86.9637 85.4355 86.9917 85.4171C87.0198 85.3985 87.0527 85.3886 87.0864 85.3887H89.3601C89.4779 85.3888 89.5907 85.4352 89.6739 85.5177C89.7571 85.6001 89.8039 85.7119 89.8039 85.8284Z" fill="#6E6E6E"/>
<path d="M95.2371 91.8054H98.309V91.0008H99.1222V87.961H98.309V87.1562H95.2371V87.961H94.4238V91.0008H95.2371V91.8054Z" fill="#6E6E6E"/>
<path d="M158.818 87.4353L157.689 84.7846H152.542L151.413 87.4353H148.714L154.207 74.8066H156.159L161.498 87.4353H158.818ZM153.326 82.7777H156.962L155.144 78.2336L153.326 82.7777Z" fill="#6E6E6E"/>
<path d="M169.224 76.9272H166.353V87.4353H163.865V76.9272H160.995V74.8066H169.224V76.9272Z" fill="#6E6E6E"/>
<path d="M170.8 74.8066H173.287V82.7398C173.287 83.535 173.491 84.1598 173.9 84.6142C174.385 85.1948 175.061 85.4852 175.929 85.4852C176.796 85.4852 177.472 85.1948 177.957 84.6142C178.365 84.1598 178.569 83.535 178.569 82.7398V74.8066H181.057V82.5315C181.057 83.9705 180.738 85.0939 180.1 85.9017C179.654 86.4823 179.054 86.9304 178.301 87.246C177.562 87.5615 176.771 87.7193 175.929 87.7193C175.086 87.7193 174.289 87.5615 173.536 87.246C172.797 86.9304 172.203 86.4823 171.757 85.9017C171.119 85.0939 170.8 83.9705 170.8 82.5315V74.8066Z" fill="#6E6E6E"/>
<path d="M183.708 74.8066H187.401C188.805 74.8066 189.89 75.1222 190.655 75.7534C191.497 76.4601 191.918 77.4069 191.918 78.5933C191.918 79.9061 191.42 80.897 190.425 81.5659C190.042 81.831 189.577 82.014 189.028 82.115L193.008 87.4353H189.908L186.502 82.3611H186.196V87.4353H183.708V74.8066ZM186.196 76.8136V80.6192H186.904C187.108 80.6192 187.306 80.6067 187.497 80.5813C187.701 80.5435 187.963 80.4741 188.282 80.3731C188.601 80.2595 188.856 80.0638 189.047 79.7862C189.251 79.4959 189.354 79.1362 189.354 78.7069C189.354 78.2778 189.258 77.9244 189.066 77.6467C188.875 77.3564 188.62 77.1607 188.301 77.0597C187.982 76.9461 187.727 76.8767 187.535 76.8515C187.344 76.8262 187.146 76.8136 186.942 76.8136H186.196Z" fill="#6E6E6E"/>
<path d="M203.385 87.4353L202.256 84.7846H197.109L195.98 87.4353H193.281L198.774 74.8066H200.726L206.064 87.4353H203.385ZM197.894 82.7777H201.53L199.711 78.2336L197.894 82.7777Z" fill="#6E6E6E"/>
<path d="M207.555 74.8066H210.043V85.3148H213.985V87.4353H207.555V74.8066Z" fill="#6E6E6E"/>
<path d="M139.142 87.4352H136.654V74.8066H138.377L144.727 83.232V74.8066H147.215V87.4352H145.493L139.142 78.9909V87.4352Z" fill="#6E6E6E"/>
<path d="M159.829 91.4297V93.5979H154.385V96.4825H159.632V98.6507H154.385V102.174H159.829V104.342H151.819V91.4297H159.829Z" fill="#6E6E6E"/>
<path d="M173.524 104.342L172.36 101.632H167.053L165.889 104.342H163.107L168.769 91.4297H170.782L176.286 104.342H173.524ZM167.862 99.5799H171.61L169.736 94.9337L167.862 99.5799Z" fill="#6E6E6E"/>
<path d="M180.073 91.4297H182.638V102.174H187.412V104.342H180.073V91.4297Z" fill="#6E6E6E"/>
<path d="M199.608 93.5979H195.938V104.342H193.374V93.5979H189.705V91.4297H199.608V93.5979Z" fill="#6E6E6E"/>
<path d="M205.784 91.4297V96.4244H211.526V91.4297H213.984V104.342H211.526V98.5927H205.784V104.342H203.379V91.4297H205.784Z" fill="#6E6E6E"/>
<path d="M139.059 91.2891V96.2837H144.801V91.2891H147.26V104.202H144.801V98.452H139.059V104.202H136.654V91.2891H139.059Z" fill="#6E6E6E"/>
<path d="M139.753 108.917L139.563 109.306C139.412 109.156 139.437 109.168 139.259 109.086C139.044 108.989 138.826 108.94 138.607 108.94C138.172 108.94 137.808 109.091 137.517 109.395C137.229 109.694 137.086 110.063 137.086 110.501C137.086 110.972 137.243 111.344 137.557 111.618C137.875 111.891 138.226 112.027 138.612 112.027C138.854 112.027 139.089 111.969 139.316 111.853C139.475 111.775 139.621 111.67 139.753 111.539V112.056C139.409 112.299 139.029 112.42 138.612 112.42C138.052 112.42 137.585 112.235 137.21 111.865C136.84 111.494 136.654 111.038 136.654 110.495C136.654 109.937 136.842 109.473 137.216 109.103C137.595 108.732 138.067 108.547 138.635 108.547C139.051 108.547 139.424 108.67 139.753 108.917Z" fill="#6E6E6E"/>
<path d="M147.804 111.865C147.426 112.235 146.96 112.42 146.408 112.42C145.855 112.42 145.388 112.235 145.006 111.865C144.628 111.494 144.438 111.034 144.438 110.484C144.438 109.93 144.63 109.469 145.012 109.103C145.394 108.732 145.859 108.547 146.408 108.547C146.956 108.547 147.422 108.732 147.804 109.103C148.186 109.469 148.377 109.93 148.377 110.484C148.377 111.034 148.186 111.494 147.804 111.865ZM147.498 109.389C147.199 109.09 146.835 108.94 146.408 108.94C145.98 108.94 145.617 109.09 145.318 109.389C145.019 109.688 144.87 110.053 144.87 110.484C144.87 110.914 145.019 111.279 145.318 111.578C145.617 111.878 145.98 112.027 146.408 112.027C146.835 112.027 147.199 111.878 147.498 111.578C147.796 111.279 147.946 110.914 147.946 110.484C147.946 110.053 147.796 109.688 147.498 109.389Z" fill="#6E6E6E"/>
<path d="M153.264 108.607H153.871C154.28 108.607 154.586 108.677 154.791 108.815C155.067 108.999 155.205 109.275 155.205 109.646C155.205 109.934 155.116 110.174 154.938 110.365C154.765 110.555 154.535 110.66 154.251 110.679L155.455 112.352H154.944L153.792 110.713H153.684V112.352H153.264V108.607ZM153.684 109V110.342H153.95C154.212 110.342 154.416 110.282 154.564 110.162C154.711 110.043 154.785 109.874 154.785 109.657C154.785 109.403 154.685 109.219 154.484 109.107C154.356 109.036 154.174 109 153.94 109H153.684Z" fill="#6E6E6E"/>
<path d="M160.228 108.607H160.915C161.346 108.607 161.664 108.695 161.868 108.871C162.099 109.066 162.215 109.333 162.215 109.674C162.215 109.966 162.114 110.215 161.914 110.421C161.717 110.623 161.418 110.724 161.017 110.724H160.648V112.352H160.228V108.607ZM160.648 109V110.331H160.994C161.244 110.331 161.438 110.271 161.579 110.151C161.722 110.032 161.794 109.865 161.794 109.652C161.794 109.217 161.516 109 160.96 109H160.648Z" fill="#6E6E6E"/>
<path d="M170.092 111.865C169.714 112.235 169.248 112.42 168.696 112.42C168.143 112.42 167.676 112.235 167.294 111.865C166.916 111.494 166.727 111.034 166.727 110.484C166.727 109.93 166.917 109.469 167.3 109.103C167.682 108.732 168.147 108.547 168.696 108.547C169.244 108.547 169.71 108.732 170.092 109.103C170.474 109.469 170.665 109.93 170.665 110.484C170.665 111.034 170.474 111.494 170.092 111.865ZM169.786 109.389C169.486 109.09 169.123 108.94 168.696 108.94C168.268 108.94 167.905 109.09 167.606 109.389C167.307 109.688 167.158 110.053 167.158 110.484C167.158 110.914 167.307 111.279 167.606 111.578C167.905 111.878 168.268 112.027 168.696 112.027C169.123 112.027 169.486 111.878 169.786 111.578C170.084 111.279 170.234 110.914 170.234 110.484C170.234 110.053 170.084 109.688 169.786 109.389Z" fill="#6E6E6E"/>
<path d="M175.552 108.607H176.159C176.568 108.607 176.874 108.677 177.078 108.815C177.355 108.999 177.493 109.275 177.493 109.646C177.493 109.934 177.404 110.174 177.226 110.365C177.052 110.555 176.823 110.66 176.539 110.679L177.743 112.352H177.232L176.08 110.713H175.972V112.352H175.552V108.607ZM175.972 109V110.342H176.239C176.5 110.342 176.704 110.282 176.852 110.162C176.999 110.043 177.073 109.874 177.073 109.657C177.073 109.403 176.973 109.219 176.772 109.107C176.643 109.036 176.462 109 176.228 109H175.972Z" fill="#6E6E6E"/>
<path d="M185.046 112.352L184.603 111.297H182.992L182.538 112.352H182.072L183.736 108.604H183.814H183.891L185.511 112.352H185.046ZM183.156 110.904H184.439L183.803 109.405L183.156 110.904Z" fill="#6E6E6E"/>
<path d="M191.755 109H190.837V112.352H190.416V109H189.497V108.607H191.755V109Z" fill="#6E6E6E"/>
<path d="M196.437 108.607H196.857V112.352H196.437V108.607Z" fill="#6E6E6E"/>
<path d="M205.11 111.865C204.731 112.235 204.266 112.42 203.714 112.42C203.162 112.42 202.694 112.235 202.312 111.865C201.933 111.494 201.744 111.034 201.744 110.484C201.744 109.93 201.936 109.469 202.317 109.103C202.699 108.732 203.165 108.547 203.714 108.547C204.262 108.547 204.728 108.732 205.11 109.103C205.492 109.469 205.683 109.93 205.683 110.484C205.683 111.034 205.492 111.494 205.11 111.865ZM204.803 109.389C204.505 109.09 204.141 108.94 203.714 108.94C203.286 108.94 202.923 109.09 202.624 109.389C202.325 109.688 202.175 110.053 202.175 110.484C202.175 110.914 202.325 111.279 202.624 111.578C202.923 111.878 203.286 112.027 203.714 112.027C204.141 112.027 204.505 111.878 204.803 111.578C205.103 111.279 205.251 110.914 205.251 110.484C205.251 110.053 205.103 109.688 204.803 109.389Z" fill="#6E6E6E"/>
<path d="M210.99 112.352H210.57V108.607H210.99L213.521 111.649V108.607H213.941V112.352H213.521L210.99 109.305V112.352Z" fill="#6E6E6E"/>
</g>
<defs>
<clipPath id="clip0_7011_5328">
<rect width="144" height="53" fill="white" transform="translate(70 63)"/>
</clipPath>
</defs>
</svg>
