<svg width="283" height="180" viewBox="0 0 283 180" fill="none" xmlns="http://www.w3.org/2000/svg">
<g clip-path="url(#clip0_7011_5328)">
<path d="M170.581 89.5C170.581 81.474 175.731 78 187.79 78C199.85 78 205 81.474 205 89.5C205 97.526 199.85 101 187.79 101C175.731 101 170.581 97.526 170.581 89.5ZM187.79 96.9271C196.458 96.9271 201.106 94.8906 201.106 89.5C201.106 84.2291 196.458 82.0729 187.79 82.0729C179.123 82.0729 174.475 84.2291 174.475 89.5C174.475 94.8906 179.123 96.9271 187.79 96.9271Z" fill="#6E6E6E"/>
<path d="M163.545 81.1146V78H158.521V82.6719L163.545 81.1146Z" fill="#6E6E6E"/>
<path d="M163.545 100.521V84.3496L158.521 86.0267V100.521H163.545Z" fill="#6E6E6E"/>
<path d="M146.587 88.4219C144.326 87.1042 141.311 87.1042 138.673 86.9844C137.417 86.9844 136.035 86.8646 134.654 86.8646C133.774 86.8646 133.02 86.8646 132.267 86.8646H131.764C131.387 86.8646 131.01 86.8646 130.382 86.8646C127.87 86.8646 123.976 86.625 123.474 84.7083C122.971 82.7917 127.368 82.1927 132.141 82.1927C136.538 82.1927 141.437 82.6719 142.944 83.1511C144.2 83.5104 145.08 84.1094 145.456 84.7083L150.481 83.1511C149.853 82.1927 148.974 81.1146 147.718 80.276C144.703 78.4792 138.296 78 133.523 78C128.624 78 120.459 78.3594 118.951 83.6302C118.825 84.9479 118.825 86.3854 119.454 87.5833C120.71 90.099 124.227 90.9375 126.865 91.0573C128.624 91.1771 130.382 91.1771 132.267 91.1771C134.276 91.1771 136.286 91.0573 138.296 91.0573C138.799 91.0573 139.301 91.0573 139.804 91.0573C143.447 91.1771 146.587 92.375 145.582 94.5312C144.954 96.2083 140.557 96.6875 136.161 96.6875C132.015 96.6875 127.87 96.2083 126.363 95.7292C124.604 95.1302 123.599 94.1719 123.474 93.6927L118.449 95.25C119.077 96.3281 119.956 97.7656 121.589 98.7239C124.478 100.521 131.01 101 135.658 101C140.557 101 148.723 100.641 150.23 95.3698C150.607 94.0521 150.481 92.375 149.602 91.0573C148.848 89.9792 147.718 89.0208 146.587 88.4219Z" fill="#6E6E6E"/>
<path d="M78 89.5C78 81.474 83.1503 78 95.2097 78C107.269 78 112.419 81.474 112.419 89.5C112.419 97.526 107.269 101 95.2097 101C83.1503 101 78 97.526 78 89.5ZM95.2097 96.9271C103.877 96.9271 108.525 94.8906 108.525 89.5C108.525 84.2291 103.877 82.0729 95.2097 82.0729C86.542 82.0729 81.8941 84.2291 81.8941 89.5C81.8941 94.8906 86.542 96.9271 95.2097 96.9271Z" fill="#6E6E6E"/>
</g>
<defs>
<clipPath id="clip0_7011_5328">
<rect width="127" height="23" fill="white" transform="translate(78 78)"/>
</clipPath>
</defs>
</svg>
