<svg width="283" height="180" viewBox="0 0 283 180" fill="none" xmlns="http://www.w3.org/2000/svg">
<path d="M193.297 100.145C191.325 100.145 189.743 99.8637 188.596 99.3104C187.446 98.755 186.565 98.0518 185.977 97.2188C185.392 96.3878 185.015 95.4768 184.859 94.508C184.705 93.5571 184.627 92.6721 184.627 91.879V79.3477H187.542V92.6541C187.542 93.0357 187.552 93.4212 187.57 93.7988C187.588 94.1684 187.653 94.5379 187.765 94.8995C187.877 95.2611 188.047 95.6327 188.269 96.0042C188.49 96.3738 188.82 96.7494 189.248 97.1209C189.791 97.6083 190.37 97.9759 190.976 98.2176C191.579 98.4594 192.282 98.5812 193.067 98.5812C193.99 98.5812 194.885 98.4474 195.73 98.1837C196.565 97.924 197.328 97.4246 197.997 96.6994C198.369 96.2899 198.657 95.8764 198.85 95.4688C199.046 95.0593 199.192 94.6398 199.286 94.2183C199.38 93.7968 199.436 93.3693 199.456 92.9478C199.476 92.5163 199.484 92.0868 199.484 91.6733V79.3477H201.046V92.6262C201.046 93.655 200.878 94.6358 200.546 95.5428C200.215 96.4517 199.713 97.2568 199.06 97.94C198.405 98.6232 197.584 99.1685 196.619 99.5581C195.656 99.9476 194.537 100.145 193.297 100.145Z" fill="#6E6E6E"/>
<path d="M179.965 100.143L163.726 84.8332V99.7977H162.105V79L178.347 94.3081V79.3456H179.965V100.143Z" fill="#6E6E6E"/>
<path d="M205.729 99.7998V79.3477H219.037V81.2255H208.643V88.1594H217.569V89.7775H208.643V97.92H219.037V99.7998H205.729Z" fill="#6E6E6E"/>
<path d="M146.055 99.7998V79.3477H159.365V81.2255H148.969V88.1594H157.897V89.7775H148.969V97.92H159.365V99.7998H146.055Z" fill="#6E6E6E"/>
<path d="M133.251 99.7998L124.691 79.3477H128.121L134.989 95.8344L141.658 79.3477H143.473L135.177 99.7998H133.251Z" fill="#6E6E6E"/>
<path d="M94.5742 99.7998V79.3477H102.351C103.478 79.3477 104.475 79.5155 105.314 79.8471C106.155 80.1807 106.864 80.6322 107.423 81.1895C107.983 81.7489 108.406 82.4161 108.682 83.1732C108.955 83.9263 109.093 84.7214 109.093 85.5424L109.091 85.6024L109.093 85.6583C109.093 86.4773 108.955 87.2744 108.682 88.0275C108.406 88.7846 107.983 89.4519 107.423 90.0112C106.866 90.5686 106.155 91.022 105.314 91.3536C104.475 91.6853 103.478 91.8531 102.351 91.8531H97.4888V99.7998H94.5742ZM100.883 90.2909C101.664 90.2909 103.252 90.1511 103.843 89.8734C104.435 89.5957 104.932 89.2261 105.32 88.7727C105.709 88.3192 106.005 87.8018 106.199 87.2365C106.386 86.6891 106.486 86.1377 106.492 85.5984C106.486 85.061 106.388 84.5096 106.199 83.9643C106.005 83.3989 105.707 82.8815 105.32 82.4281C104.932 81.9766 104.435 81.605 103.843 81.3273C103.252 81.0497 101.664 80.9098 100.883 80.9098H97.4888V90.2909H100.883Z" fill="#6E6E6E"/>
<path d="M88.8013 79.3477H85.8867V99.7998H88.8013V79.3477Z" fill="#6E6E6E"/>
<path d="M72.56 99.7998L64 79.3477H67.43L74.298 95.8344L80.9682 79.3477H82.7821L74.4858 99.7998H72.56Z" fill="#6E6E6E"/>
<path d="M123.311 99.7998H126.741L118.179 79.3477H116.253L107.955 99.7998H109.771L112.17 93.8687H120.836L123.311 99.7998ZM112.815 92.2766L116.441 83.313L120.177 92.2766H112.815Z" fill="#6E6E6E"/>
</svg>
